<svg width="341" height="82" viewBox="0 0 341 82" fill="none" xmlns="http://www.w3.org/2000/svg">
<path d="M82 58.95C81.4333 58.95 81.0667 58.5833 80.9 57.85C80.7333 57.4833 80.65 56.8167 80.65 55.85C80.65 52.95 80.6167 50.3667 80.55 48.1C80.45 44.8333 80.4 41.3833 80.4 37.75V26.75C80.4 26.45 80.5333 26.1667 80.8 25.9C81.1 25.6 81.4 25.45 81.7 25.45L87.45 25.5C88.5167 25.5333 89.9167 25.55 91.65 25.55C94.15 25.55 96.0833 25.5333 97.45 25.5L99.3 25.45C101.3 25.3833 102.95 25.35 104.25 25.35C106.35 25.35 108.35 25.65 110.25 26.25C112.483 26.9167 114.3 28.0667 115.7 29.7C117.267 31.4667 118.05 33.85 118.05 36.85C118.05 41.9167 116.767 45.5833 114.2 47.85C111.933 49.9833 108.55 51.05 104.05 51.05H97.2C97.2333 51.8167 97.25 52.6333 97.25 53.5C97.25 53.8 97.2333 54.1667 97.2 54.6C97.2 55 97.2 55.55 97.2 56.25C97.2 57.35 96.9667 58.05 96.5 58.35C96.1333 58.65 95.45 58.8 94.45 58.8C92.9833 58.8 91.9667 58.8167 91.4 58.85C89.1 58.85 87.2667 58.8833 85.9 58.95H82ZM99.9 45.05C100.6 45.05 101.117 44.3833 101.45 43.05C101.717 42.15 101.917 40.8167 102.05 39.05C102.117 38.0833 102.15 37 102.15 35.8V35.25C102.15 34.7167 102.067 33.9167 101.9 32.85C101.767 32.25 101.617 31.7833 101.45 31.45C101.283 31.0833 101.067 30.7833 100.8 30.55C100.533 30.25 100.233 30.1 99.9 30.1C99.7333 30.1 99.5833 30.1667 99.45 30.3C99.35 30.4333 99.25 30.6 99.15 30.8C98.7833 31.4 98.45 32.7333 98.15 34.8C98.05 35.4 97.9667 36.3 97.9 37.5C97.7333 39.3333 97.65 41.7833 97.65 44.85C97.65 44.85 97.6667 44.8667 97.7 44.9C97.7333 44.9333 97.8 44.9667 97.9 45L98.5 45.05H99.9ZM124.243 58.8C124.177 58.8 124.127 58.7333 124.093 58.6C123.86 58.3 123.693 57.9333 123.593 57.5C123.493 57.3333 123.41 57.1167 123.343 56.85C123.043 56.25 122.827 55.4167 122.693 54.35C122.56 52.8167 122.493 51.6 122.493 50.7C122.46 50.3 122.443 49.75 122.443 49.05V47.85C122.443 46.85 122.427 46.0667 122.393 45.5C122.36 44.9 122.343 43.7167 122.343 41.95C122.343 37.2167 122.443 33.5667 122.643 31C122.643 30.6 123.21 30.3 124.343 30.1H125.843H127.093C128.993 30.1 130.41 30.1333 131.343 30.2C132.743 30.3 134.16 30.35 135.593 30.35C135.927 30.35 136.177 30.3333 136.343 30.3H137.093L137.343 30.5C138.443 30.2667 139.577 30.1167 140.743 30.05C141.91 29.9833 143.327 29.95 144.993 29.95C145.06 29.95 145.143 30 145.243 30.1H146.843C147.11 30.1 147.31 30.25 147.443 30.55C147.61 30.85 147.743 31.2833 147.843 31.85C147.977 32.2833 148.077 32.8167 148.143 33.45C148.277 34.2833 148.393 34.8333 148.493 35.1C148.493 36.0333 148.327 36.5 147.993 36.5C147.96 36.5 147.91 36.45 147.843 36.35L147.643 36.3C147.477 36.2667 147.293 36.2833 147.093 36.35C146.893 36.45 146.677 36.5 146.443 36.5C146.243 36.5 146.077 36.45 145.943 36.35C145.877 36.3167 145.727 36.3 145.493 36.3C145.193 36.3 144.843 36.35 144.443 36.45C144.31 36.4833 144.043 36.5333 143.643 36.6C143.277 36.6667 142.843 36.7 142.343 36.7C140.91 36.7 139.877 36.7333 139.243 36.8C138.877 36.8333 138.527 36.9333 138.193 37.1V37C138.06 37 137.943 37.1667 137.843 37.5C137.61 38.0667 137.46 38.85 137.393 39.85C137.36 40.15 137.343 40.4833 137.343 40.85C137.343 41.2167 137.393 41.4667 137.493 41.6C137.627 41.7333 137.827 41.8 138.093 41.8C138.293 41.8 138.46 41.7333 138.593 41.6C138.66 41.6 138.743 41.6167 138.843 41.65C138.943 41.6833 139.027 41.7333 139.093 41.8H143.343C143.377 41.7333 143.427 41.6833 143.493 41.65C143.56 41.6167 143.627 41.6 143.693 41.6C144.027 41.6 144.277 41.65 144.443 41.75C144.643 41.85 145.043 41.95 145.643 42.05C145.977 42.05 146.21 42.15 146.343 42.35C146.51 42.5833 146.593 42.8 146.593 43L147.643 46.3C147.743 46.8333 147.243 47.1833 146.143 47.35C145.51 47.4833 144.293 47.55 142.493 47.55H140.343H138.843C138.377 47.55 138.027 47.5833 137.793 47.65C137.56 47.6833 137.41 47.8 137.343 48C137.21 48.1667 137.143 48.4333 137.143 48.8V49C137.143 49.1667 137.16 49.2833 137.193 49.35L137.143 50.45C137.11 50.6833 137.093 51.0333 137.093 51.5V52V52.45V52.75C138.593 52.75 140.127 52.7 141.693 52.6C143.227 52.5 144.743 52.45 146.243 52.45C146.343 52.45 146.427 52.5333 146.493 52.7C146.56 52.8333 146.593 53 146.593 53.2C146.66 53.4 146.693 53.6167 146.693 53.85C146.76 54.35 146.86 54.8167 146.993 55.25L147.343 56.7V57.7V57.85V58.25L146.943 58.6H146.593H146.443C146.077 58.6 145.843 58.5833 145.743 58.55C145.643 58.4833 145.527 58.45 145.393 58.45C145.327 58.4833 145.227 58.5333 145.093 58.6C144.96 58.6667 144.843 58.7333 144.743 58.8V58.55L144.143 58.6H143.393C143.26 58.6 143.16 58.5667 143.093 58.5L142.693 58.45C141.46 58.45 140.593 58.5667 140.093 58.8H124.243ZM168.534 59.15H166.234H163.634H160.334C160.034 58.6833 159.834 57.8333 159.734 56.6C159.601 55.5 159.534 53.9 159.534 51.8L159.584 46.3C159.617 44.9667 159.634 42.85 159.634 39.95L159.484 39.8H154.534C153.801 39.8 153.317 38.9667 153.084 37.3C152.951 36.4 152.884 35.0833 152.884 33.35V32.7C152.951 32.4667 152.984 32.1 152.984 31.6V30.6L153.034 30.2L153.234 30L154.134 30.05H155.134C156.601 30.05 157.717 30.0333 158.484 30H161.734H162.634H164.334H166.484H168.634C169.067 30.0333 169.684 30.05 170.484 30.05H171.734C171.867 29.9833 172.084 29.95 172.384 29.95C172.617 29.8833 172.834 29.85 173.034 29.85C173.667 29.85 174.151 29.8833 174.484 29.95C175.151 30.0167 175.651 30.05 175.984 30.05L177.284 30H179.234C180.234 30 180.917 30.0167 181.284 30.05L181.984 30.1C182.017 30.1333 182.067 30.1833 182.134 30.25C182.201 30.2833 182.234 30.3167 182.234 30.35V38.85C182.234 39.05 182.117 39.2667 181.884 39.5C181.684 39.7333 181.484 39.8833 181.284 39.95C180.184 39.7167 178.751 39.6 176.984 39.6H175.084C174.584 39.6 174.251 40.2333 174.084 41.5C174.017 41.8667 173.984 42.4 173.984 43.1V44.6C173.984 45.2667 174.001 45.7667 174.034 46.1V47.5C174.034 48.8667 173.967 50.1333 173.834 51.3C173.767 52.1667 173.734 52.8 173.734 53.2C173.667 53.6 173.634 54.15 173.634 54.85C173.634 55.85 173.601 56.6833 173.534 57.35C173.501 58.3833 173.117 58.9333 172.384 59C171.584 59.1 171.117 59.15 170.984 59.15H168.534ZM216.791 60.2C214.591 60.2 212.757 60.1 211.291 59.9C209.391 59.6333 207.674 59.15 206.141 58.45C205.941 58.35 205.641 58.2 205.241 58C204.874 57.7667 204.557 57.55 204.291 57.35C203.191 56.4167 202.291 55.3667 201.591 54.2C201.024 53.6 200.507 52.7667 200.041 51.7C199.141 49.3667 198.691 46.5833 198.691 43.35C198.691 39.55 199.474 36.2167 201.041 33.35C202.407 30.6167 204.224 28.4833 206.491 26.95C208.791 25.3833 211.391 24.5 214.291 24.3L214.891 24.25H215.541C218.141 24.25 220.941 24.7833 223.941 25.85C224.207 25.9833 224.791 26.25 225.691 26.65C226.591 27.05 227.424 27.5 228.191 28L227.291 34.5L224.341 33.75C223.274 33.4833 222.274 33.35 221.341 33.35C219.474 33.35 218.074 34.05 217.141 35.45C216.141 36.9167 215.641 39.3 215.641 42.6C215.641 43.6667 215.691 44.4167 215.791 44.85C215.924 46.95 216.391 48.5 217.191 49.5C217.957 50.3667 218.874 50.8 219.941 50.8C220.941 50.8 222.057 50.4833 223.291 49.85C224.357 49.35 225.524 48.6667 226.791 47.8L227.291 56C225.991 57.2 224.324 58.2167 222.291 59.05C220.357 59.8167 218.524 60.2 216.791 60.2ZM233.83 59.05C233.196 59.05 232.946 58.4833 233.08 57.35C233.08 56.95 233.163 56.5 233.33 56C233.33 55.7667 233.346 55.5833 233.38 55.45C233.413 55.2833 233.43 55.15 233.43 55.05C234.196 51.4167 235.046 47.8333 235.98 44.3L239.38 31C239.38 30.9333 239.43 30.85 239.53 30.75C239.63 30.65 239.73 30.5667 239.83 30.5H240.18C240.58 30.5 240.896 30.45 241.13 30.35C241.33 30.3167 241.68 30.3 242.18 30.3C242.98 30.3 243.58 30.3167 243.98 30.35C244.58 30.45 245.196 30.5 245.83 30.5L248.43 30.45C248.696 30.3833 249.013 30.35 249.38 30.35L251.58 30.25H253.23C253.863 30.25 254.48 30.2667 255.08 30.3H256.48C256.813 30.3333 257.296 30.35 257.93 30.35H259.83C259.93 30.35 260.03 30.3667 260.13 30.4C260.23 30.4333 260.313 30.4667 260.38 30.5C260.513 30.5667 260.68 30.6 260.88 30.6H261.33C261.563 30.7667 261.68 30.9333 261.68 31.1L265.23 44.3C266.33 48.5333 267.196 52.1167 267.83 55.05C267.83 55.2167 267.88 55.5333 267.98 56C268.113 56.6667 268.18 57.2 268.18 57.6C268.18 57.8333 268.146 58.15 268.08 58.55C267.913 58.8833 267.68 59.05 267.38 59.05H266.83C266.396 59.05 266.063 59.0333 265.83 59H264.73H263.68H262.83C262.596 59 262.463 58.9833 262.43 58.95H259.68L259.63 58.85C259.563 58.7833 259.463 58.75 259.33 58.75L259.18 58.85C259.18 58.9167 259.146 58.95 259.08 58.95H258.93H258.58C258.413 58.8833 258.113 58.85 257.68 58.85C256.88 58.7833 256.213 58.75 255.68 58.75C255.313 57.9833 254.88 56.3 254.38 53.7C253.68 53.8 252.88 53.85 251.98 53.85H250.68H249.43C249.296 54.35 249.213 54.7667 249.18 55.1C249.146 55.2667 249.013 55.8333 248.78 56.8C248.546 57.7667 248.33 58.4167 248.13 58.75L247.83 58.85C247.73 58.8833 247.646 58.9167 247.58 58.95C247.513 58.95 247.48 58.95 247.48 58.95H247.38C247.18 58.95 247.046 58.9167 246.98 58.85C246.846 58.7833 246.763 58.75 246.73 58.75L244.83 58.85H243.43C243.263 58.8833 243.13 58.9167 243.03 58.95C242.93 58.95 242.863 58.95 242.83 58.95H238.83H238.43C238.13 58.9833 237.513 59 236.58 59H235.38C235.18 59.0333 234.863 59.05 234.43 59.05H233.83ZM253.93 48.35C253.73 47.2167 253.613 46.55 253.58 46.35L253.18 43.95C253.113 43.4833 253.046 43.0667 252.98 42.7C252.913 42.3 252.863 41.9333 252.83 41.6C252.73 41.2 252.646 40.8333 252.58 40.5C252.546 40.1333 252.496 39.8 252.43 39.5C252.396 39.3 252.363 39.05 252.33 38.75C252.296 38.4167 252.246 38.1833 252.18 38.05L252.08 37.45C252.08 37.3167 252.046 37.2 251.98 37.1L251.93 36.8C251.863 37 251.83 37.1 251.83 37.1V37.3V37.45C251.83 37.4833 251.813 37.55 251.78 37.65C251.746 37.7167 251.713 37.85 251.68 38.05C251.646 38.2167 251.613 38.4333 251.58 38.7C251.546 38.9333 251.496 39.2 251.43 39.5L251.08 41.55L250.68 43.85L250.53 44.95C250.463 45.2167 250.396 45.65 250.33 46.25C250.03 47.75 249.896 48.4333 249.93 48.3H252.13C252.163 48.2667 252.213 48.2333 252.28 48.2C252.346 48.1333 252.396 48.1 252.43 48.1H252.58C252.746 48.1 252.88 48.1167 252.98 48.15C253.113 48.1833 253.23 48.2167 253.33 48.25C253.53 48.3167 253.73 48.35 253.93 48.35ZM296.811 59.55C295.344 58.1167 294.094 56.6667 293.061 55.2C292.327 54.2333 291.194 52.5167 289.661 50.05L288.811 48.7C288.777 48.6667 288.744 48.65 288.711 48.65C288.711 48.6167 288.711 48.6 288.711 48.6H288.461L288.261 48.7C288.227 49.1333 288.211 50.3 288.211 52.2C288.211 53.4333 288.144 54.8833 288.011 56.55L287.961 58.05C287.827 58.4167 287.744 58.6 287.711 58.6H287.361H287.211C283.544 58.8667 280.877 59 279.211 59H278.461H277.511C277.144 59 276.877 58.9833 276.711 58.95H276.361L274.811 58.45L274.711 58.1C274.644 58.1 274.594 58.0333 274.561 57.9C274.561 57.7667 274.561 57.6667 274.561 57.6C274.461 56.2 274.377 55.1833 274.311 54.55C274.177 52.75 274.094 51.4333 274.061 50.6C273.994 49.8 273.961 49.2833 273.961 49.05L273.711 46.3L273.661 44.8C273.627 44.5 273.611 44.0833 273.611 43.55V43.1C273.677 42.9333 273.711 42.6667 273.711 42.3V41.45C273.744 41.3167 273.761 41.1667 273.761 41L273.711 40.6V40.1C273.711 39.8667 273.677 39.6833 273.611 39.55V39.25L273.661 38C273.694 37.7667 273.711 37.4167 273.711 36.95C273.777 35.95 273.811 35 273.811 34.1V33.6C273.777 33.5 273.761 33.2833 273.761 32.95V32.25V31.75C273.661 31.65 273.611 31.55 273.611 31.45C273.611 30.9833 274.027 30.65 274.861 30.45C275.294 30.3167 275.911 30.25 276.711 30.25C284.511 30.25 290.344 30.5167 294.211 31.05C298.011 31.5833 300.677 32.5 302.211 33.8C302.877 34.4333 303.344 35.1833 303.611 36.05C303.911 36.8833 304.061 37.8833 304.061 39.05C304.061 40.9167 303.527 42.4833 302.461 43.75C301.761 44.45 300.944 45.0333 300.011 45.5C300.211 46 300.794 47 301.761 48.5C301.961 48.7333 302.144 48.9833 302.311 49.25C302.511 49.5167 302.744 49.8 303.011 50.1C303.644 50.9667 304.377 51.9167 305.211 52.95C305.244 53.0833 305.377 53.3667 305.611 53.8C305.777 53.8667 305.861 53.95 305.861 54.05C305.894 54.1167 305.877 54.2167 305.811 54.35C305.544 54.75 304.761 55.3333 303.461 56.1C303.294 56.2667 303.094 56.4333 302.861 56.6C302.194 57.1333 301.277 57.6833 300.111 58.25C299.044 58.8167 298.127 59.2167 297.361 59.45C297.061 59.6167 296.877 59.65 296.811 59.55ZM287.711 41.95C288.144 41.95 288.727 41.8667 289.461 41.7C290.161 41.5 290.661 41.3 290.961 41.1C291.461 40.8 291.894 40.4667 292.261 40.1C292.627 39.6667 292.811 39.1667 292.811 38.6C292.811 37.6667 292.527 36.9167 291.961 36.35C291.461 35.95 290.844 35.75 290.111 35.75H287.961C287.961 36.1833 287.927 36.8667 287.861 37.8L287.811 38.85C287.744 39.5167 287.711 40.55 287.711 41.95ZM313.111 58.8C313.044 58.8 312.994 58.7333 312.961 58.6C312.727 58.3 312.561 57.9333 312.461 57.5C312.361 57.3333 312.277 57.1167 312.211 56.85C311.911 56.25 311.694 55.4167 311.561 54.35C311.427 52.8167 311.361 51.6 311.361 50.7C311.327 50.3 311.311 49.75 311.311 49.05V47.85C311.311 46.85 311.294 46.0667 311.261 45.5C311.227 44.9 311.211 43.7167 311.211 41.95C311.211 37.2167 311.311 33.5667 311.511 31C311.511 30.6 312.077 30.3 313.211 30.1H314.711H315.961C317.861 30.1 319.277 30.1333 320.211 30.2C321.611 30.3 323.027 30.35 324.461 30.35C324.794 30.35 325.044 30.3333 325.211 30.3H325.961L326.211 30.5C327.311 30.2667 328.444 30.1167 329.611 30.05C330.777 29.9833 332.194 29.95 333.861 29.95C333.927 29.95 334.011 30 334.111 30.1H335.711C335.977 30.1 336.177 30.25 336.311 30.55C336.477 30.85 336.611 31.2833 336.711 31.85C336.844 32.2833 336.944 32.8167 337.011 33.45C337.144 34.2833 337.261 34.8333 337.361 35.1C337.361 36.0333 337.194 36.5 336.861 36.5C336.827 36.5 336.777 36.45 336.711 36.35L336.511 36.3C336.344 36.2667 336.161 36.2833 335.961 36.35C335.761 36.45 335.544 36.5 335.311 36.5C335.111 36.5 334.944 36.45 334.811 36.35C334.744 36.3167 334.594 36.3 334.361 36.3C334.061 36.3 333.711 36.35 333.311 36.45C333.177 36.4833 332.911 36.5333 332.511 36.6C332.144 36.6667 331.711 36.7 331.211 36.7C329.777 36.7 328.744 36.7333 328.111 36.8C327.744 36.8333 327.394 36.9333 327.061 37.1V37C326.927 37 326.811 37.1667 326.711 37.5C326.477 38.0667 326.327 38.85 326.261 39.85C326.227 40.15 326.211 40.4833 326.211 40.85C326.211 41.2167 326.261 41.4667 326.361 41.6C326.494 41.7333 326.694 41.8 326.961 41.8C327.161 41.8 327.327 41.7333 327.461 41.6C327.527 41.6 327.611 41.6167 327.711 41.65C327.811 41.6833 327.894 41.7333 327.961 41.8H332.211C332.244 41.7333 332.294 41.6833 332.361 41.65C332.427 41.6167 332.494 41.6 332.561 41.6C332.894 41.6 333.144 41.65 333.311 41.75C333.511 41.85 333.911 41.95 334.511 42.05C334.844 42.05 335.077 42.15 335.211 42.35C335.377 42.5833 335.461 42.8 335.461 43L336.511 46.3C336.611 46.8333 336.111 47.1833 335.011 47.35C334.377 47.4833 333.161 47.55 331.361 47.55H329.211H327.711C327.244 47.55 326.894 47.5833 326.661 47.65C326.427 47.6833 326.277 47.8 326.211 48C326.077 48.1667 326.011 48.4333 326.011 48.8V49C326.011 49.1667 326.027 49.2833 326.061 49.35L326.011 50.45C325.977 50.6833 325.961 51.0333 325.961 51.5V52V52.45V52.75C327.461 52.75 328.994 52.7 330.561 52.6C332.094 52.5 333.611 52.45 335.111 52.45C335.211 52.45 335.294 52.5333 335.361 52.7C335.427 52.8333 335.461 53 335.461 53.2C335.527 53.4 335.561 53.6167 335.561 53.85C335.627 54.35 335.727 54.8167 335.861 55.25L336.211 56.7V57.7V57.85V58.25L335.811 58.6H335.461H335.311C334.944 58.6 334.711 58.5833 334.611 58.55C334.511 58.4833 334.394 58.45 334.261 58.45C334.194 58.4833 334.094 58.5333 333.961 58.6C333.827 58.6667 333.711 58.7333 333.611 58.8V58.55L333.011 58.6H332.261C332.127 58.6 332.027 58.5667 331.961 58.5L331.561 58.45C330.327 58.45 329.461 58.5667 328.961 58.8H313.111Z" fill="#8332AC"/>
<path d="M23.4375 30.4375H25.9375V27.9375V9.1875C25.9375 8.60734 26.168 8.05094 26.5782 7.6407C26.9884 7.23047 27.5448 7 28.125 7H46.875C47.4552 7 48.0116 7.23047 48.4218 7.6407C48.832 8.05094 49.0625 8.60734 49.0625 9.1875V27.9375V30.4375H51.5625H70.3125C70.8927 30.4375 71.4491 30.668 71.8593 31.0782C72.2695 31.4884 72.5 32.0448 72.5 32.625V51.375C72.5 51.9552 72.2695 52.5116 71.8593 52.9218C71.4491 53.332 70.8927 53.5625 70.3125 53.5625H51.5625H49.0625V56.0625V74.8125C49.0625 75.3927 48.832 75.9491 48.4218 76.3593C48.0116 76.7695 47.4552 77 46.875 77H28.125C27.5448 77 26.9884 76.7695 26.5782 76.3593C26.168 75.9491 25.9375 75.3927 25.9375 74.8125V56.0625V53.5625H23.4375H4.6875C4.10734 53.5625 3.55094 53.332 3.1407 52.9218C2.73047 52.5116 2.5 51.9552 2.5 51.375V32.625C2.5 32.0448 2.73047 31.4884 3.1407 31.0782C3.55094 30.668 4.10734 30.4375 4.6875 30.4375H23.4375Z" stroke="#8332AC" stroke-width="5"/>
<path d="M40.3502 39.6C42.3002 39.6 43.5002 36.75 43.5002 34.95C43.5002 33.45 42.7502 31.65 41.2502 31.65C39.3002 31.65 38.1002 34.5 38.1002 36.3C38.1002 37.8 38.8502 39.6 40.3502 39.6ZM34.6502 39.6C36.1502 39.6 36.9002 37.8 36.9002 36.3C36.9002 34.35 35.7002 31.5 33.7502 31.5C32.2502 31.5 31.5002 33.3 31.5002 34.8C31.3502 36.75 32.5502 39.6 34.6502 39.6ZM45.7502 38.1C43.8002 38.1 42.4502 40.8 42.4502 42.75C42.4502 44.1 43.0502 45.45 44.4002 45.45C46.3502 45.45 47.7002 42.75 47.7002 40.8C47.7002 39.45 46.9502 38.1 45.7502 38.1ZM32.7002 42.75C32.7002 40.8 31.2002 38.1 29.4002 38.1C28.0502 38.1 27.4502 39.45 27.4502 40.8C27.4502 42.75 28.9502 45.45 30.7502 45.45C32.1002 45.45 32.7002 44.1 32.7002 42.75ZM37.5002 42.45C34.5002 42.45 30.4502 47.25 30.4502 50.55C30.4502 52.05 31.5002 52.5 32.7002 52.5C34.5002 52.5 35.8502 51.3 37.5002 51.3C39.0002 51.3 40.3502 52.5 42.0002 52.5C43.2002 52.5 44.5502 52.2 44.5502 50.55C44.5502 47.25 40.5002 42.45 37.5002 42.45Z" fill="#8332AC"/>
</svg>
